<svg width="2400" height="350" viewBox="0 0 2400 350" fill="none" xmlns="http://www.w3.org/2000/svg">
<rect width="2400" height="350" fill="#48B882"/>
<path d="M196 247L168 231L112 263M196 247L140 279M196 247V279L140 311M140 279L112 263M140 279V311M112 263V295L140 311" stroke="white" stroke-width="4" stroke-linejoin="round"/>
<path d="M140 55L168 39L196 55M140 55L168 71M140 55V87L168 103M168 71L196 55M168 71V103M196 55V87L168 103" stroke="white" stroke-width="4" stroke-linejoin="round"/>
<path d="M140 151L196 183L168 199V231L112 199V167L140 151Z" fill="#B8DFC8"/>
<path d="M140 151L196 183M168 199L112 167M168 231L112 199" stroke="white" stroke-width="4" stroke-linecap="round" stroke-dasharray="10 10"/>
<path d="M84 119L140 87L168 103M84 119L112 135M84 119V183L112 199M168 103L112 135M168 103V135L140 151V183L112 199M112 135V199" stroke="white" stroke-width="4" stroke-linejoin="round"/>
<path d="M168 199L196 183L224 199M168 199L196 215M168 199V231L196 247M196 215L224 199M196 215V247M224 199V231L196 247" stroke="white" stroke-width="4" stroke-linejoin="round"/>
<path d="M269.976 90.736H277.392V135.808H302.304V142H269.976V90.736ZM342.106 105.712V142H334.906V135.808C333.85 137.968 332.266 139.624 330.154 140.776C328.09 141.928 325.666 142.504 322.882 142.504C319.666 142.504 316.834 141.736 314.386 140.2C311.986 138.664 310.114 136.504 308.77 133.72C307.426 130.888 306.754 127.6 306.754 123.856C306.754 120.112 307.426 116.8 308.77 113.92C310.162 111.04 312.082 108.808 314.53 107.224C316.978 105.64 319.762 104.848 322.882 104.848C325.666 104.848 328.09 105.448 330.154 106.648C332.218 107.8 333.802 109.456 334.906 111.616V105.712H342.106ZM324.61 136.744C327.874 136.744 330.394 135.616 332.17 133.36C333.994 131.056 334.906 127.84 334.906 123.712C334.906 119.536 333.994 116.32 332.17 114.064C330.394 111.808 327.85 110.68 324.538 110.68C321.274 110.68 318.706 111.856 316.834 114.208C315.01 116.512 314.098 119.728 314.098 123.856C314.098 127.936 315.01 131.104 316.834 133.36C318.706 135.616 321.298 136.744 324.61 136.744ZM370.861 104.848C371.965 104.848 373.117 105.016 374.317 105.352L374.173 111.976C372.877 111.496 371.461 111.256 369.925 111.256C366.613 111.256 364.117 112.264 362.437 114.28C360.805 116.248 359.989 118.744 359.989 121.768V142H352.789V115.936C352.789 112.144 352.597 108.736 352.213 105.712H358.981L359.629 112.264C360.589 109.864 362.077 108.04 364.093 106.792C366.109 105.496 368.365 104.848 370.861 104.848ZM412.348 105.712V142H405.148V135.808C404.092 137.968 402.508 139.624 400.396 140.776C398.332 141.928 395.908 142.504 393.124 142.504C389.908 142.504 387.076 141.736 384.628 140.2C382.228 138.664 380.356 136.504 379.012 133.72C377.668 130.888 376.996 127.6 376.996 123.856C376.996 120.112 377.668 116.8 379.012 113.92C380.404 111.04 382.324 108.808 384.772 107.224C387.22 105.64 390.004 104.848 393.124 104.848C395.908 104.848 398.332 105.448 400.396 106.648C402.46 107.8 404.044 109.456 405.148 111.616V105.712H412.348ZM394.852 136.744C398.116 136.744 400.636 135.616 402.412 133.36C404.236 131.056 405.148 127.84 405.148 123.712C405.148 119.536 404.236 116.32 402.412 114.064C400.636 111.808 398.092 110.68 394.78 110.68C391.516 110.68 388.948 111.856 387.076 114.208C385.252 116.512 384.34 119.728 384.34 123.856C384.34 127.936 385.252 131.104 387.076 133.36C388.948 135.616 391.54 136.744 394.852 136.744ZM456.007 105.784L440.239 142H433.687L418.063 105.784H425.767L437.143 133.792L448.735 105.784H456.007ZM492.101 124H466.181C466.421 132.496 470.285 136.744 477.773 136.744C481.949 136.744 485.765 135.376 489.221 132.64L491.453 137.824C489.821 139.264 487.733 140.416 485.189 141.28C482.693 142.096 480.173 142.504 477.629 142.504C471.821 142.504 467.261 140.848 463.949 137.536C460.637 134.176 458.981 129.592 458.981 123.784C458.981 120.088 459.701 116.8 461.141 113.92C462.629 111.04 464.693 108.808 467.333 107.224C469.973 105.64 472.973 104.848 476.333 104.848C481.229 104.848 485.069 106.432 487.853 109.6C490.685 112.768 492.101 117.16 492.101 122.776V124ZM476.477 110.248C473.741 110.248 471.509 111.064 469.781 112.696C468.053 114.328 466.949 116.656 466.469 119.68H485.693C485.405 116.608 484.469 114.28 482.885 112.696C481.301 111.064 479.165 110.248 476.477 110.248ZM500.445 89.008H507.645V142H500.445V89.008Z" fill="#CDECDA"/>
<path d="M301.92 255.96C295.28 255.96 289.2 255.08 283.68 253.32C278.24 251.56 273.52 248.92 269.52 245.4L273.96 236.28C278.12 239.64 282.44 242.08 286.92 243.6C291.4 245.12 296.44 245.88 302.04 245.88C308.44 245.88 313.4 244.68 316.92 242.28C320.44 239.88 322.2 236.48 322.2 232.08C322.2 228.4 320.56 225.64 317.28 223.8C314 221.88 308.8 220.12 301.68 218.52C294.88 217.08 289.32 215.44 285 213.6C280.68 211.68 277.28 209.16 274.8 206.04C272.32 202.84 271.08 198.76 271.08 193.8C271.08 188.84 272.4 184.48 275.04 180.72C277.68 176.88 281.4 173.92 286.2 171.84C291.08 169.68 296.68 168.6 303 168.6C309 168.6 314.6 169.52 319.8 171.36C325.08 173.2 329.48 175.8 333 179.16L328.56 188.28C324.64 185 320.6 182.6 316.44 181.08C312.28 179.48 307.84 178.68 303.12 178.68C296.96 178.68 292.12 180 288.6 182.64C285.08 185.2 283.32 188.72 283.32 193.2C283.32 197.04 284.84 199.96 287.88 201.96C291 203.96 295.96 205.76 302.76 207.36C309.88 208.96 315.64 210.64 320.04 212.4C324.44 214.16 327.96 216.56 330.6 219.6C333.24 222.64 334.56 226.56 334.56 231.36C334.56 236.32 333.24 240.64 330.6 244.32C327.96 248 324.16 250.88 319.2 252.96C314.32 254.96 308.56 255.96 301.92 255.96ZM400.418 225H357.218C357.618 239.16 364.058 246.24 376.538 246.24C383.498 246.24 389.858 243.96 395.618 239.4L399.338 248.04C396.618 250.44 393.138 252.36 388.898 253.8C384.738 255.16 380.538 255.84 376.298 255.84C366.618 255.84 359.018 253.08 353.498 247.56C347.978 241.96 345.218 234.32 345.218 224.64C345.218 218.48 346.418 213 348.818 208.2C351.298 203.4 354.738 199.68 359.138 197.04C363.538 194.4 368.538 193.08 374.138 193.08C382.298 193.08 388.698 195.72 393.338 201C398.058 206.28 400.418 213.6 400.418 222.96V225ZM374.378 202.08C369.818 202.08 366.098 203.44 363.218 206.16C360.338 208.88 358.498 212.76 357.698 217.8H389.738C389.258 212.68 387.698 208.8 385.058 206.16C382.418 203.44 378.858 202.08 374.378 202.08ZM470.125 194.52V253.92C470.125 263.12 467.685 270.04 462.805 274.68C458.005 279.4 450.845 281.76 441.325 281.76C432.125 281.76 424.085 279.76 417.205 275.76L419.245 266.28C423.005 268.28 426.605 269.76 430.045 270.72C433.565 271.68 437.285 272.16 441.205 272.16C452.485 272.16 458.125 266.4 458.125 254.88V241.8C456.285 245.32 453.605 248.12 450.085 250.2C446.565 252.2 442.485 253.2 437.845 253.2C432.565 253.2 427.845 251.96 423.685 249.48C419.605 247 416.405 243.48 414.085 238.92C411.845 234.36 410.725 229.12 410.725 223.2C410.725 217.28 411.845 212.04 414.085 207.48C416.405 202.92 419.605 199.4 423.685 196.92C427.845 194.36 432.565 193.08 437.845 193.08C442.485 193.08 446.565 194.08 450.085 196.08C453.605 198 456.285 200.76 458.125 204.36V194.52H470.125ZM440.605 243.48C446.045 243.48 450.325 241.68 453.445 238.08C456.565 234.48 458.125 229.52 458.125 223.2C458.125 216.88 456.565 211.92 453.445 208.32C450.405 204.64 446.125 202.8 440.605 202.8C435.165 202.8 430.845 204.64 427.645 208.32C424.525 211.92 422.965 216.88 422.965 223.2C422.965 229.44 424.525 234.4 427.645 238.08C430.845 241.68 435.165 243.48 440.605 243.48ZM556.919 193.08C570.359 193.08 577.079 201.16 577.079 217.32V255H564.959V217.92C564.959 212.72 564.039 208.92 562.199 206.52C560.439 204.12 557.559 202.92 553.559 202.92C548.919 202.92 545.239 204.52 542.519 207.72C539.879 210.92 538.559 215.28 538.559 220.8V255H526.439V217.92C526.439 212.72 525.519 208.92 523.679 206.52C521.919 204.12 519.039 202.92 515.039 202.92C510.399 202.92 506.719 204.52 503.999 207.72C501.279 210.92 499.919 215.28 499.919 220.8V255H487.919V211.56C487.919 205.24 487.599 199.56 486.959 194.52H498.239L499.319 204.6C501.079 200.92 503.599 198.08 506.879 196.08C510.159 194.08 513.999 193.08 518.399 193.08C527.759 193.08 533.879 196.96 536.759 204.72C538.599 201.12 541.279 198.28 544.799 196.2C548.399 194.12 552.439 193.08 556.919 193.08ZM646.043 225H602.843C603.243 239.16 609.683 246.24 622.163 246.24C629.123 246.24 635.483 243.96 641.243 239.4L644.963 248.04C642.243 250.44 638.763 252.36 634.523 253.8C630.363 255.16 626.163 255.84 621.923 255.84C612.243 255.84 604.643 253.08 599.123 247.56C593.603 241.96 590.843 234.32 590.843 224.64C590.843 218.48 592.043 213 594.443 208.2C596.923 203.4 600.363 199.68 604.763 197.04C609.163 194.4 614.163 193.08 619.763 193.08C627.923 193.08 634.323 195.72 638.963 201C643.683 206.28 646.043 213.6 646.043 222.96V225ZM620.003 202.08C615.443 202.08 611.723 203.44 608.843 206.16C605.963 208.88 604.123 212.76 603.323 217.8H635.363C634.883 212.68 633.323 208.8 630.683 206.16C628.043 203.44 624.483 202.08 620.003 202.08ZM692.11 193.08C706.59 193.08 713.83 201.16 713.83 217.32V255H701.71V218.04C701.71 212.76 700.67 208.92 698.59 206.52C696.59 204.12 693.35 202.92 688.87 202.92C683.75 202.92 679.63 204.52 676.51 207.72C673.47 210.92 671.95 215.2 671.95 220.56V255H659.95V211.56C659.95 205.24 659.63 199.56 658.99 194.52H670.27L671.35 204.96C673.27 201.12 676.03 198.2 679.63 196.2C683.31 194.12 687.47 193.08 692.11 193.08ZM746.803 203.88V234.24C746.803 238.4 747.683 241.36 749.443 243.12C751.283 244.8 753.803 245.64 757.003 245.64C759.083 245.64 761.203 245.32 763.363 244.68V254.52C760.723 255.4 757.723 255.84 754.363 255.84C748.123 255.84 743.283 254.08 739.843 250.56C736.403 247.04 734.683 241.92 734.683 235.2V203.88H722.923V194.52H734.683V179.4L746.803 175.2V194.52H763.483V203.88H746.803Z" fill="white"/>
</svg>
